<?xml version="1.0" encoding="utf-8"?>
<!-- Generator: Adobe Illustrator 19.0.0, SVG Export Plug-In . SVG Version: 6.00 Build 0)  -->
<svg version="1.1" id="Laag_1" xmlns="http://www.w3.org/2000/svg" xmlns:xlink="http://www.w3.org/1999/xlink" x="0px" y="0px"
	 viewBox="0 0 100 100" style="enable-background:new 0 0 100 100;" xml:space="preserve">
<style type="text/css">
	.st0{fill:#3B5998;}
</style>
<g id="XMLID_1036_">
	<path id="XMLID_1251_" class="st0" d="M50,0C22.4,0,0,22.4,0,50c0,27.6,22.4,50,50,50c27.6,0,50-22.4,50-50C100,22.4,77.6,0,50,0
		L50,0z M69.1,25.5l-6.9,0c-5.4,0-6.5,2.6-6.5,6.4v8.3h12.9l0,13.1H55.7v33.5H42.2V53.2H30.9V40.2h11.3v-9.6
		c0-11.2,6.8-17.3,16.8-17.3l10.1,0L69.1,25.5L69.1,25.5z M69.1,25.5"/>
</g>
</svg>
