<?xml version="1.0" encoding="utf-8"?>
<!-- Generator: Adobe Illustrator 19.0.0, SVG Export Plug-In . SVG Version: 6.00 Build 0)  -->
<svg version="1.1" id="Laag_1" xmlns="http://www.w3.org/2000/svg" xmlns:xlink="http://www.w3.org/1999/xlink" x="0px" y="0px"
	 viewBox="0 0 115 165" style="enable-background:new 0 0 115 165;" xml:space="preserve">
<style type="text/css">
	.st0{fill:#FFFFFF;}
	.st1{font-family:'Open Sans', sans-serif;}
	.st2{font-size:79.8439px;}
</style>
<path id="XMLID_683_" class="st0" d="M58,99.7c23.3,0,42.3-19.1,42.3-42.5S81.4,14.8,58,14.8S15.7,33.8,15.7,57.3S34.7,99.7,58,99.7
	z M58,20.9c20,0,36.2,16.3,36.2,36.4S78,93.6,58,93.6S21.8,77.3,21.8,57.3S38.1,20.9,58,20.9z"/>
<path id="XMLID_686_" class="st0" d="M57.5,165l46-66.8c17.3-23.1,14.8-61.1-5.3-81.3C87.3,6,72.9,0,57.5,0S27.7,6,16.8,16.9
	C-3.3,37.1-5.8,75.1,11.4,98.1L57.5,165z M21.1,21.2C30.8,11.4,43.7,6,57.5,6s26.7,5.4,36.4,15.2c18.1,18.2,20.4,52.5,4.7,73.5
	l-41.1,59.7L16.3,94.6C0.7,73.7,2.9,39.4,21.1,21.2z"/>
<text id="XMLID_689_" transform="matrix(0.9951 0 0 1 34.7847 82.4907)" class="st0 st1 st2">2</text>
</svg>
