<?xml version="1.0" encoding="utf-8"?>
<!-- Generator: Adobe Illustrator 19.0.0, SVG Export Plug-In . SVG Version: 6.00 Build 0)  -->
<svg version="1.1" id="Layer_1" xmlns="http://www.w3.org/2000/svg" xmlns:xlink="http://www.w3.org/1999/xlink" x="0px" y="0px"
	 viewBox="0 0 310 311" style="enable-background:new 0 0 310 311;" xml:space="preserve">
<style type="text/css">
	.st0{fill:#FFFFFF;stroke:#000000;stroke-miterlimit:10;}
	.st1{fill:#E64B3C;}
	.st2{fill:#3BAA70;}
	.st3{fill:#FFFFFF;}
	.st4{fill:none;}
	.st5{fill:#010101;}
	.st6{font-family:'OpenSans';}
	.st7{font-size:57.4066px;}
	.st8{stroke:#000000;stroke-width:0.5;stroke-miterlimit:10;}
</style>
<rect id="XMLID_1_" x="192.6" y="206.8" class="st0" width="0" height="0"/>
<g id="XMLID_11_">
	<g id="XMLID_26_">
		<circle id="XMLID_36_" class="st1" cx="154.6" cy="156" r="149.1"/>
		<path id="XMLID_29_" class="st2" d="M154.6,6.9V156h-0.1l0.1,0.1L56.3,268.1c26.2,23,60.6,36.9,98.2,36.9
			c82.3,0,149.1-66.7,149.1-149.1C303.6,73.7,236.9,6.9,154.6,6.9z"/>
	</g>
	<circle id="XMLID_13_" class="st3" cx="154.6" cy="156" r="95.5"/>
</g>
<rect id="XMLID_3_" x="91.8" y="133.8" class="st4" width="125.4" height="44.3"/>
<text id="XMLID_9_" transform="matrix(1 0 0 1 91.8375 177.4684)" class="st5 st6 st7">62%</text>
<g id="XMLID_2_">
	<g id="XMLID_12_">
		<g id="XMLID_48_">
			<g id="XMLID_52_">
				<path id="XMLID_51_" class="st8" d="M194,173.8L194,173.8c-0.1,0-0.1-0.1-0.1-0.1c0-0.1,0.1-0.1,0.1-0.1s0.1,0.1,0.1,0.1
					C194.2,173.8,194.1,173.8,194,173.8L194,173.8L194,173.8c0.1,0,0.1-0.1,0.1-0.1c0-0.1-0.1-0.1-0.1-0.1s-0.1,0.1-0.1,0.1
					C193.9,173.8,194,173.8,194,173.8L194,173.8z"/>
			</g>
		</g>
	</g>
	<g id="XMLID_49_">
		<g id="XMLID_50_">
		</g>
	</g>
</g>
</svg>
