<?xml version="1.0" encoding="utf-8"?>
<!-- Generator: Adobe Illustrator 21.0.0, SVG Export Plug-In . SVG Version: 6.00 Build 0)  -->
<svg version="1.1" id="Layer_1" xmlns="http://www.w3.org/2000/svg" xmlns:xlink="http://www.w3.org/1999/xlink" x="0px" y="0px"
	 viewBox="0 0 949 356" style="enable-background:new 0 0 949 356;" xml:space="preserve">
<style type="text/css">
	.st0{fill:#35495E;}
	.st1{fill:#FFFFFF;stroke:#000000;stroke-miterlimit:10;}
	.st2{fill:#E64B3C;}
	.st3{fill:#3BAA70;}
	.st4{fill:none;}
	.st5{stroke:#000000;stroke-width:0.5;stroke-miterlimit:10;}
	.st6{fill:#3BAA70;stroke:#FFFFFF;stroke-miterlimit:10;}
	.st7{fill:#FFFFFF;}
	.st8{fill:#E64B3C;stroke:#FFFFFF;stroke-miterlimit:10;}
	.st9{font-family:'Open Sans';}
	.st10{font-size:40px;}
	.st11{font-family:'Open Sans';}
	.st12{font-size:14px;}
	.st13{font-weight: 700;}
}
</style>
<rect class="st0" width="949" height="356"/>
<path id="XMLID_1_" class="st1" d="M507.5,243.8L507.5,243.8L507.5,243.8z"/>
<g id="XMLID_11_">
	<g id="XMLID_26_">
		<circle id="XMLID_36_" class="st2" cx="469.5" cy="193" r="149.1"/>
		<path id="XMLID_29_" class="st3" d="M469.5,43.9V193h-0.1l0.1,0.1l-98.3,112c26.2,23,60.6,36.9,98.2,36.9
			c82.3,0,149.1-66.7,149.1-149.1C618.5,110.7,551.8,43.9,469.5,43.9z"/>
	</g>
	<circle id="XMLID_13_" class="st0" cx="469.5" cy="192.5" r="95.5"/>
</g>
<rect id="XMLID_3_" x="406.7" y="170.8" class="st4" width="125.4" height="44.3"/>
<g id="XMLID_2_">
	<g id="XMLID_12_">
		<g id="XMLID_48_">
			<g id="XMLID_52_">
				<path id="XMLID_51_" class="st5" d="M508.9,210.8L508.9,210.8c-0.1,0-0.1-0.1-0.1-0.1c0-0.1,0.1-0.1,0.1-0.1l0.1,0.1
					C509.1,210.8,509,210.8,508.9,210.8L508.9,210.8L508.9,210.8c0.1,0,0.1-0.1,0.1-0.1c0-0.1-0.1-0.1-0.1-0.1l-0.1,0.1
					C508.8,210.8,508.9,210.8,508.9,210.8L508.9,210.8z"/>
			</g>
		</g>
	</g>
	<g id="XMLID_49_">
		<g id="XMLID_50_">
		</g>
	</g>
</g>
<line class="st6" x1="584.2" y1="69.4" x2="612.5" y2="43.9"/>
<line class="st6" x1="612.5" y1="43.9" x2="684.4" y2="43.9"/>
<circle class="st7" cx="688" cy="44" r="3.5"/>
<line class="st8" x1="357" y1="68" x2="330.2" y2="43.9"/>
<line class="st8" x1="330.2" y1="43.9" x2="258.3" y2="43.9"/>
<circle class="st7" cx="260.7" cy="44" r="3.5"/>
<rect x="171.2" y="17" class="st4" width="81.8" height="34"/>
<text transform="matrix(1 0 0 1 171.2405 47.3999)" class="st7 st9 st10 st13">38%</text>
<rect x="127.7" y="57" class="st4" width="133" height="50"/>
<text transform="matrix(1 0 0 1 127.6846 67.6401)" class="st7 st11 st12">Heeft nee gekozen.</text>
<rect x="695.1" y="17" class="st4" width="81.8" height="34"/>
<text transform="matrix(1 0 0 1 695.0559 47.3999)" class="st7 st9 st10 st13">62%</text>
<rect x="697.1" y="55" class="st4" width="133" height="50"/>
<text transform="matrix(1 0 0 1 697.0559 65.6401)" class="st7 st11 st12">Heeft ja gekozen.</text>
</svg>
