<?xml version="1.0" encoding="utf-8"?>
<!-- Generator: Adobe Illustrator 19.0.0, SVG Export Plug-In . SVG Version: 6.00 Build 0)  -->
<svg version="1.1" id="Laag_1" xmlns="http://www.w3.org/2000/svg" xmlns:xlink="http://www.w3.org/1999/xlink" x="0px" y="0px"
	 viewBox="0 0 30 50" style="enable-background:new 0 0 30 50;" xml:space="preserve">
<style type="text/css">
	.st0{fill:#34495E;}
</style>
<g id="XMLID_443_">
	<path id="XMLID_447_" class="st0" d="M8.5,27.7c0.8,0,1.5-0.7,1.5-1.5c0,0,0-9.4,0-9.4c0-0.1,0.1-0.2,0.2-0.2h0.3
		c0.1,0,0.2,0.1,0.2,0.2v26.3c0,1.1,0.9,2,2,2c1.1,0,2-0.9,2-2V27.6c0-0.1,0.1-0.2,0.2-0.2h0.3c0.1,0,0.2,0,0.2,0.2v15.5
		c0,1.1,0.9,2,2,2c1.1,0,2-0.9,2-2V16.8c0-0.1,0.1-0.2,0.2-0.2h0.3c0.1,0,0.2,0.1,0.2,0.2l0,9.4c0,0.8,0.7,1.5,1.5,1.5
		c0.8,0,1.5-0.7,1.5-1.5V15.5c0-2.1-1.6-3.7-3.6-3.7h-8.7c-2,0-3.6,1.6-3.6,3.7v10.7C7,27,7.7,27.7,8.5,27.7L8.5,27.7z M8.5,27.7"/>
	<path id="XMLID_444_" class="st0" d="M17.9,7.9c0,1.6-1.3,2.9-2.9,2.9c-1.6,0-2.9-1.3-2.9-2.9C12.1,6.3,13.4,5,15,5
		C16.6,5,17.9,6.3,17.9,7.9L17.9,7.9z M17.9,7.9"/>
</g>
</svg>
