<?xml version="1.0" encoding="utf-8"?>
<!-- Generator: Adobe Illustrator 19.0.0, SVG Export Plug-In . SVG Version: 6.00 Build 0)  -->
<svg version="1.1" id="Laag_1" xmlns="http://www.w3.org/2000/svg" xmlns:xlink="http://www.w3.org/1999/xlink" x="0px" y="0px"
	 viewBox="0 0 100 100" style="enable-background:new 0 0 100 100;" xml:space="preserve">
<style type="text/css">
	.st0{fill:#FFFFFF;}
	.st1{fill:#1F54A1;}
	.st2{fill:#D70E29;}
	.st3{fill:#F0F0F0;}
</style>
<g id="XMLID_135_">
	<path id="XMLID_170_" class="st0" d="M99.8,49.8c0,27.6-22.4,50-50,50c-27.6,0-50-22.4-50-50c0-27.6,22.4-50,50-50
		C77.4-0.2,99.8,22.2,99.8,49.8L99.8,49.8z M99.8,49.8"/>
	<path id="XMLID_167_" class="st1" d="M49.8-0.2C34.6-0.2,21,6.6,11.9,17.2h75.8C78.5,6.6,64.9-0.2,49.8-0.2L49.8-0.2z M49.8-0.2"/>
	<path id="XMLID_164_" class="st1" d="M87.7,82.4H11.9C21,93.1,34.6,99.8,49.8,99.8C64.9,99.8,78.5,93.1,87.7,82.4L87.7,82.4z
		 M87.7,82.4"/>
	<path id="XMLID_161_" class="st2" d="M92.4,23.8H7.1c-4.7,7.6-7.3,16.5-7.3,26.1c0,9.6,2.7,18.5,7.3,26.1h85.3
		c4.7-7.6,7.3-16.5,7.3-26.1C99.8,40.3,97.1,31.3,92.4,23.8L92.4,23.8z M92.4,23.8"/>
	<path id="XMLID_158_" class="st3" d="M49.8,49.8c0,10.6-8.6,19.2-19.2,19.2c-10.6,0-19.2-8.6-19.2-19.2c0-10.6,8.6-19.2,19.2-19.2
		C41.1,30.6,49.8,39.2,49.8,49.8L49.8,49.8z M49.8,49.8"/>
	<path id="XMLID_136_" class="st2" d="M30.5,30.6l4.3,13.3h14l-11.3,8.2l4.4,13.3l-11.3-8.3l-11.3,8.2l4.3-13.3l-11.3-8.2h14
		L30.5,30.6z M30.5,30.6"/>
</g>
</svg>
