<?xml version="1.0" encoding="utf-8"?>
<!-- Generator: Adobe Illustrator 19.0.0, SVG Export Plug-In . SVG Version: 6.00 Build 0)  -->
<svg version="1.1" id="Laag_1" xmlns="http://www.w3.org/2000/svg" xmlns:xlink="http://www.w3.org/1999/xlink" x="0px" y="0px"
	 viewBox="0 0 100 100" style="enable-background:new 0 0 100 100;" xml:space="preserve">
<style type="text/css">
	.st0{fill:#FFFFFF;}
	.st1{fill:#D70E29;}
	.st2{fill:#1F54A1;}
</style>
<g id="XMLID_135_">
	<path id="XMLID_175_" class="st0" d="M100.4,50c0,27.6-22.4,50-50,50c-27.6,0-50-22.4-50-50c0-27.6,22.4-50,50-50
		C78,0,100.4,22.4,100.4,50L100.4,50z M100.4,50"/>
	<path id="XMLID_172_" class="st1" d="M48.2,50h52.2c0-4.5-0.6-8.9-1.7-13H48.2V50z M48.2,50"/>
	<path id="XMLID_169_" class="st1" d="M48.2,23.9H93c-3.1-5-7-9.4-11.5-13H48.2V23.9z M48.2,23.9"/>
	<path id="XMLID_166_" class="st1" d="M50.4,100c11.8,0,22.6-4.1,31.1-10.9H19.2C27.8,95.9,38.6,100,50.4,100L50.4,100z M50.4,100"
		/>
	<path id="XMLID_163_" class="st1" d="M7.7,76.1H93c2.5-4,4.4-8.4,5.6-13H2.1C3.3,67.7,5.2,72.1,7.7,76.1L7.7,76.1z M7.7,76.1"/>
	<path id="XMLID_136_" class="st2" d="M23.5,7.8h4.6l-4.2,3.1l1.6,5l-4.2-3.1L17,15.8l1.4-4.3c-3.7,3.1-7,6.8-9.7,10.8h1.5l-2.7,2
		C7,25,6.6,25.7,6.2,26.4l1.3,4l-2.4-1.7c-0.6,1.3-1.1,2.6-1.6,3.9l1.4,4.4h5.2L5.9,40l1.6,5l-4.2-3.1l-2.5,1.8
		c-0.3,2-0.4,4.1-0.4,6.2h50V0C40.5,0,31.3,2.8,23.5,7.8L23.5,7.8z M25.5,45l-4.2-3.1L17,45l1.6-5l-4.2-3.1h5.2l1.6-5l1.6,5h5.2
		L23.8,40L25.5,45z M23.8,25.4l1.6,5l-4.2-3.1L17,30.4l1.6-5l-4.2-3.1h5.2l1.6-5l1.6,5h5.2L23.8,25.4z M43.4,45l-4.2-3.1L34.9,45
		l1.6-5l-4.2-3.1h5.2l1.6-5l1.6,5H46L41.8,40L43.4,45z M41.8,25.4l1.6,5l-4.2-3.1l-4.2,3.1l1.6-5l-4.2-3.1h5.2l1.6-5l1.6,5H46
		L41.8,25.4z M41.8,10.9l1.6,5l-4.2-3.1l-4.2,3.1l1.6-5l-4.2-3.1h5.2l1.6-5l1.6,5H46L41.8,10.9z M41.8,10.9"/>
</g>
</svg>
