<?xml version="1.0" encoding="utf-8"?>
<!-- Generator: Adobe Illustrator 19.0.0, SVG Export Plug-In . SVG Version: 6.00 Build 0)  -->
<svg version="1.1" id="Laag_1" xmlns="http://www.w3.org/2000/svg" xmlns:xlink="http://www.w3.org/1999/xlink" x="0px" y="0px"
	 viewBox="0 0 100 100" style="enable-background:new 0 0 100 100;" xml:space="preserve">
<style type="text/css">
	.st0{fill:#FFFFFF;}
	.st1{fill:#A21921;}
	.st2{fill:#1F54A1;}
</style>
<g id="XMLID_2_">
	<path id="XMLID_9_" class="st0" d="M100,49.8c0,27.6-22.4,50-50,50c-27.6,0-50-22.4-50-50c0-27.6,22.4-50,50-50
		C77.6-0.2,100,22.2,100,49.8L100,49.8z M100,49.8"/>
	<path id="XMLID_6_" class="st1" d="M50-0.2c-21.5,0-39.8,13.6-46.9,32.6h93.8C89.8,13.4,71.5-0.2,50-0.2L50-0.2z M50-0.2"/>
	<path id="XMLID_3_" class="st2" d="M50,99.8c21.5,0,39.8-13.6,46.9-32.6H3.1C10.2,86.3,28.5,99.8,50,99.8L50,99.8z M50,99.8"/>
</g>
</svg>
