<?xml version="1.0" encoding="utf-8"?>
<!-- Generator: Adobe Illustrator 19.0.0, SVG Export Plug-In . SVG Version: 6.00 Build 0)  -->
<svg version="1.1" id="Laag_1" xmlns="http://www.w3.org/2000/svg" xmlns:xlink="http://www.w3.org/1999/xlink" x="0px" y="0px"
	 viewBox="0 0 17 43" style="enable-background:new 0 0 17 43;" xml:space="preserve">
<style type="text/css">
	.st0{fill:#34495E;}
</style>
<g id="XMLID_295_">
	<path id="XMLID_304_" class="st0" d="M1.7,24.3c0.9,0,1.6-0.7,1.6-1.6c0,0,0-9.8,0-9.8c0-0.1,0.1-0.2,0.2-0.2h0.3
		c0.1,0,0.2,0.1,0.2,0.2v27.5c0,1.1,0.9,2.1,2.1,2.1c1.1,0,2.1-0.9,2.1-2.1V24.2c0-0.1,0.1-0.2,0.2-0.2h0.3c0.1,0,0.2,0,0.2,0.2
		v16.2c0,1.1,0.9,2.1,2.1,2.1c1.1,0,2.1-0.9,2.1-2.1V12.9c0-0.1,0.1-0.2,0.2-0.2h0.3c0.1,0,0.2,0.1,0.2,0.2l0,9.8
		c0,0.9,0.7,1.6,1.6,1.6c0.9,0,1.6-0.7,1.6-1.6V11.5c0-2.2-1.7-3.9-3.8-3.9H3.9c-2.1,0-3.8,1.7-3.8,3.9v11.2
		C0.1,23.6,0.9,24.3,1.7,24.3L1.7,24.3z M1.7,24.3"/>
	<path id="XMLID_300_" class="st0" d="M11.6,3.6c0,1.7-1.4,3.1-3.1,3.1c-1.7,0-3.1-1.4-3.1-3.1c0-1.7,1.4-3.1,3.1-3.1
		C10.2,0.5,11.6,1.9,11.6,3.6L11.6,3.6z M11.6,3.6"/>
</g>
</svg>
