<?xml version="1.0" encoding="utf-8"?>
<!-- Generator: Adobe Illustrator 19.0.0, SVG Export Plug-In . SVG Version: 6.00 Build 0)  -->
<svg version="1.1" id="Laag_1" xmlns="http://www.w3.org/2000/svg" xmlns:xlink="http://www.w3.org/1999/xlink" x="0px" y="0px"
	 viewBox="0 0 240 526.4" style="enable-background:new 0 0 240 526.4;" xml:space="preserve">
<style type="text/css">
	.st0{fill:#DD4E41;}
	.st1{fill:#FFFFFF;}
	.st2{fill:#718CA9;}
</style>
<path id="XMLID_869_" class="st0" d="M120,73.6c20.3,0,36.8-16.5,36.8-36.8C156.8,16.5,140.3,0,120,0C99.7,0,83.2,16.5,83.2,36.8
	C83.2,57.2,99.7,73.6,120,73.6z"/>
<path id="XMLID_874_" class="st0" d="M174.5,84.7H65.5c-17.6,0-32.8,9.9-40.3,24.7h189.8C207.3,94.6,192.2,84.7,174.5,84.7z"/>
<path id="XMLID_876_" class="st1" d="M124,476.1c0,13.7,11.1,24.7,24.7,24.7c13.7,0,24.8-11.1,24.8-24.7v-11.9H124V476.1z"/>
<path id="XMLID_877_" class="st1" d="M66.5,476.1c0,13.7,11.1,24.7,24.7,24.7c13.7,0,24.8-11.1,24.8-24.7v-11.9H66.5V476.1z"/>
<path id="XMLID_878_" class="st2" d="M214.9,109.5H25.1c-3.3,6.4-5.1,13.8-5.1,21.7V182v82.6c0,10.6,8.6,19.2,19.2,19.2
	c10.6,0,19.2-8.6,19.2-19.2c0,0,0-48,0-82.6c0-19.4,0-34.6,0-34.6c0-1.1,0.9-2,2-2h4.1c1.1,0,2,0.9,2,2V182v245.7v36.6H116v-36.6
	v-145c0-1.4,0.7-2,2-2h4c1.4,0,2,0.6,2,2v145v36.6h49.5v-36.6V182v-34.6c0-1.1,0.9-2,2-2h4.1c1.1,0,2,0.9,2,2l0,34.6l0,82.6
	c0,10.6,8.6,19.2,19.2,19.2c10.6,0,19.2-8.6,19.2-19.2V182v-50.8C220,123.3,218.1,115.9,214.9,109.5z"/>
</svg>
