<?xml version="1.0" encoding="utf-8"?>
<!-- Generator: Adobe Illustrator 19.0.0, SVG Export Plug-In . SVG Version: 6.00 Build 0)  -->
<svg version="1.1" id="Laag_1" xmlns="http://www.w3.org/2000/svg" xmlns:xlink="http://www.w3.org/1999/xlink" x="0px" y="0px"
	 viewBox="0 0 240 526.4" style="enable-background:new 0 0 240 526.4;" xml:space="preserve">
<style type="text/css">
	.st0{fill:#DD4E41;}
	.st1{fill:#FFFFFF;}
	.st2{fill:#718CA9;}
</style>
<path id="XMLID_860_" class="st0" d="M120,73.6c20.3,0,36.8-16.5,36.8-36.8C156.8,16.5,140.3,0,120,0C99.7,0,83.2,16.5,83.2,36.8
	C83.2,57.2,99.7,73.6,120,73.6z"/>
<path id="XMLID_863_" class="st1" d="M124,476.1c0,13.7,11.1,24.7,24.7,24.7c13.7,0,24.8-11.1,24.8-24.7v-48.5H124V476.1z"/>
<path id="XMLID_864_" class="st1" d="M66.5,476.1c0,13.7,11.1,24.7,24.7,24.7c13.7,0,24.8-11.1,24.8-24.7v-48.5H66.5V476.1z"/>
<path id="XMLID_865_" class="st2" d="M66.5,427.7H116v-145c0-1.4,0.7-2,2-2h4c1.4,0,2,0.6,2,2v145h49.5V182H66.5V427.7z"/>
<path id="XMLID_866_" class="st2" d="M20,264.5c0,10.6,8.6,19.2,19.2,19.2c10.6,0,19.2-8.6,19.2-19.2c0,0,0-48,0-82.6H20V264.5z"/>
<path id="XMLID_867_" class="st2" d="M181.6,264.5c0,10.6,8.6,19.2,19.2,19.2c10.6,0,19.2-8.6,19.2-19.2V182h-38.4L181.6,264.5z"/>
<path id="XMLID_868_" class="st0" d="M174.5,84.7H65.5c-25.3,0-45.5,20.2-45.5,46.5V182h38.4c0-19.4,0-34.6,0-34.6c0-1.1,0.9-2,2-2
	h4.1c1.1,0,2,0.9,2,2V182h107.1v-34.6c0-1.1,0.9-2,2-2h4.1c1.1,0,2,0.9,2,2l0,34.6H220v-50.8C220,104.9,199.8,84.7,174.5,84.7z"/>
</svg>
