<?xml version="1.0" encoding="utf-8"?>
<!-- Generator: Adobe Illustrator 19.0.0, SVG Export Plug-In . SVG Version: 6.00 Build 0)  -->
<svg version="1.1" id="Laag_1" xmlns="http://www.w3.org/2000/svg" xmlns:xlink="http://www.w3.org/1999/xlink" x="0px" y="0px"
	 viewBox="0 0 240 240" style="enable-background:new 0 0 240 240;" xml:space="preserve">
<style type="text/css">
	.st0{clip-path:url(#XMLID_2_);fill:#34495E;}
	.st1{fill:#34495E;}
	.st2{fill:#A5A8B4;}
</style>
<g id="XMLID_510_">
	<g id="XMLID_511_">
		<g id="XMLID_512_">
			<defs>
				<rect id="XMLID_513_" x="1" y="8.4" width="237.9" height="223.3"/>
			</defs>
			<clipPath id="XMLID_2_">
				<use xlink:href="#XMLID_513_"  style="overflow:visible;"/>
			</clipPath>
			<path id="XMLID_514_" class="st0" d="M213.4,11.4l-57.3,55.1C139.2,52.3,118,44.5,95.9,44.5c-51.6,0-93.5,42-93.5,93.6
				c0,51.6,42,93.5,93.5,93.5c51.6,0,93.6-42,93.6-93.5c0-19.4-5.8-37.8-16.9-53.6l57.8-55.6c2.4-2.3,3.8-5.4,3.8-8.8
				c0-3.2-1.2-6.2-3.4-8.4C226,6.8,218.3,6.7,213.4,11.4L213.4,11.4z M26.8,138.1c0-38.1,31-69.2,69.1-69.2
				c38.1,0,69.1,31,69.1,69.2c0,38.1-31,69.1-69.1,69.1C57.8,207.2,26.8,176.2,26.8,138.1L26.8,138.1z M26.8,138.1"/>
		</g>
	</g>
</g>
<path id="XMLID_509_" class="st1" d="M83.5,196.5c0,3.5,2.8,6.3,6.3,6.3s6.3-2.8,6.3-6.3v-6.7c-3.9,0-8.7,0-12.5,0
	c3.8,0,8.6,0,12.5,0l0,0H83.5V196.5z"/>
<path id="XMLID_508_" class="st1" d="M98.2,196.5c0,3.5,2.8,6.3,6.3,6.3c3.5,0,6.3-2.8,6.3-6.3v-6.7H98.2V196.5z"/>
<path id="XMLID_507_" class="st2" d="M111.1,96.5H83.2c-6.5,0-11.6,5.2-11.6,11.9v34.1c0,2.7,2.2,4.9,4.9,4.9c2.7,0,4.9-2.2,4.9-4.9
	c0,0,0-29.9,0-29.9c0-0.3,0.2-0.5,0.5-0.5h1c0.3,0,0.5,0.2,0.5,0.5v77.3l12.6,0v-42.7c0-0.4,0.2-0.5,0.5-0.5h1
	c0.4,0,0.5,0.2,0.5,0.5v42.7l12.6,0v-77.3c0-0.3,0.2-0.5,0.5-0.5h1c0.3,0,0.5,0.2,0.5,0.5c0,0,0,29.9,0,29.9c0,2.7,2.2,4.9,4.9,4.9
	c2.7,0,4.9-2.2,4.9-4.9v-34.1C122.7,101.7,117.5,96.5,111.1,96.5z"/>
<path id="XMLID_504_" class="st2" d="M106.6,84.3c0,5.2-4.2,9.4-9.4,9.4c-5.2,0-9.4-4.2-9.4-9.4c0-5.2,4.2-9.4,9.4-9.4
	C102.4,74.9,106.6,79.1,106.6,84.3L106.6,84.3z M106.6,84.3"/>
</svg>
