<?xml version="1.0" encoding="utf-8"?>
<!-- Generator: Adobe Illustrator 19.0.0, SVG Export Plug-In . SVG Version: 6.00 Build 0)  -->
<svg version="1.1" id="Layer_1" xmlns="http://www.w3.org/2000/svg" xmlns:xlink="http://www.w3.org/1999/xlink" x="0px" y="0px"
	 viewBox="-153 241 312 311" style="enable-background:new -153 241 312 311;" xml:space="preserve">
<style type="text/css">
	.st0{fill:#FFFFFF;stroke:#000000;stroke-miterlimit:10;}
	.st1{fill:#E64B3C;}
	.st2{fill:#3BAA70;}
	.st3{fill:#35495E;}
	.st4{fill:none;}
	.st5{fill:#FFFFFF;}
	.st6{font-family:'OpenSans';}
	.st7{font-size:57.4066px;}
	.st8{stroke:#000000;stroke-width:0.5;stroke-miterlimit:10;}
</style>
<polygon id="XMLID_1_" class="st0" points="39.6,447.8 39.6,447.8 39.6,447.8 "/>
<g id="XMLID_11_">
	<g id="XMLID_26_">
		<circle id="XMLID_36_" class="st1" cx="1.6" cy="397" r="149.1"/>
		<path id="XMLID_29_" class="st2" d="M1.6,247.9V397H1.5l0.1,0.1l-98.3,112c26.2,23,60.6,36.9,98.2,36.9
			c82.3,0,149.1-66.7,149.1-149.1C150.6,314.7,83.9,247.9,1.6,247.9z"/>
	</g>
	<circle id="XMLID_13_" class="st3" cx="1.6" cy="396.5" r="95.5"/>
</g>
<rect id="XMLID_3_" x="-61.2" y="374.8" class="st4" width="125.4" height="44.3"/>
<text id="XMLID_9_" transform="matrix(1 0 0 1 -61.1625 418.4684)" class="st5 st6 st7">38%</text>
<g id="XMLID_2_">
	<g id="XMLID_12_">
		<g id="XMLID_48_">
			<g id="XMLID_52_">
				<path id="XMLID_51_" class="st8" d="M41,414.8L41,414.8c-0.1,0-0.1-0.1-0.1-0.1c0-0.1,0.1-0.1,0.1-0.1l0.1,0.1
					C41.2,414.8,41.1,414.8,41,414.8L41,414.8L41,414.8c0.1,0,0.1-0.1,0.1-0.1c0-0.1-0.1-0.1-0.1-0.1l-0.1,0.1
					C40.9,414.8,41,414.8,41,414.8L41,414.8z"/>
			</g>
		</g>
	</g>
	<g id="XMLID_49_">
		<g id="XMLID_50_">
		</g>
	</g>
</g>
</svg>
