<?xml version="1.0" encoding="utf-8"?>
<!-- Generator: Adobe Illustrator 19.0.0, SVG Export Plug-In . SVG Version: 6.00 Build 0)  -->
<svg version="1.1" id="Laag_1" xmlns="http://www.w3.org/2000/svg" xmlns:xlink="http://www.w3.org/1999/xlink" x="0px" y="0px"
	 viewBox="0 0 40 40" style="enable-background:new 0 0 40 40;" xml:space="preserve">
<style type="text/css">
	.st0{fill:#FFFFFF;}
</style>
<g id="XMLID_108_">
	<path id="XMLID_112_" class="st0" d="M39.8,19.9C39.8,8.9,30.9,0,19.9,0S0,8.9,0,19.9s8.9,19.9,19.9,19.9S39.8,30.9,39.8,19.9
		L39.8,19.9z M2,19.9C2,10,10,2,19.9,2c9.9,0,17.9,8,17.9,17.9c0,9.9-8,17.9-17.9,17.9C10,37.8,2,29.8,2,19.9L2,19.9z M2,19.9"/>
	<path id="XMLID_109_" class="st0" d="M20.6,29.3l5.6-5.6c0.4-0.4,0.4-1,0-1.4c-0.4-0.4-1-0.4-1.4,0l-3.9,3.9V11.3c0-0.6-0.4-1-1-1
		c-0.6,0-1,0.4-1,1v14.9L15,22.3c-0.4-0.4-1-0.4-1.4,0c-0.4,0.4-0.4,1,0,1.4l5.6,5.6c0.2,0.2,0.4,0.3,0.7,0.3
		C20.2,29.5,20.4,29.5,20.6,29.3L20.6,29.3z M20.6,29.3"/>
</g>
</svg>
