<?xml version="1.0" encoding="utf-8"?>
<!-- Generator: Adobe Illustrator 19.0.0, SVG Export Plug-In . SVG Version: 6.00 Build 0)  -->
<svg version="1.1" id="Laag_1" xmlns="http://www.w3.org/2000/svg" xmlns:xlink="http://www.w3.org/1999/xlink" x="0px" y="0px"
	 viewBox="0 0 100 100" style="enable-background:new 0 0 100 100;" xml:space="preserve">
<style type="text/css">
	.st0{fill:#25A9E1;}
</style>
<g id="XMLID_1266_">
	<path id="XMLID_1267_" class="st0" d="M50,0C22.4,0,0,22.4,0,50c0,27.6,22.4,50,50,50c27.6,0,50-22.4,50-50C100,22.4,77.6,0,50,0
		L50,0z M80.2,36.7c0,0.6,0,1.2,0,1.8c0,21.4-16.3,43.4-43.5,43.4c-8.3,0-16.4-2.4-23.4-6.9c-0.1-0.1-0.2-0.3-0.1-0.4
		c0.1-0.2,0.2-0.3,0.4-0.2c1.2,0.1,2.4,0.2,3.6,0.2c6.5,0,12.6-2,17.8-5.8c-6.2-0.5-11.5-4.7-13.5-10.7c0-0.1,0-0.3,0.1-0.4
		c0.1-0.1,0.2-0.1,0.3-0.1c1.7,0.3,3.5,0.3,5.2,0.1c-6.4-2-10.9-8-10.9-14.8v-0.2c0-0.1,0.1-0.2,0.2-0.3c0.1-0.1,0.3-0.1,0.4,0
		c1.7,0.9,3.5,1.5,5.4,1.7c-3.7-2.9-5.8-7.4-5.8-12.1c0-2.7,0.7-5.4,2.1-7.8c0.1-0.1,0.2-0.2,0.3-0.2c0.1,0,0.2,0,0.3,0.1
		c7.5,9.2,18.6,14.9,30.5,15.7c-0.2-1-0.3-2-0.3-3.1c0-8.6,7-15.5,15.5-15.5c4.2,0,8.3,1.7,11.2,4.7c3.3-0.7,6.4-1.9,9.3-3.6
		c0.1-0.1,0.3-0.1,0.4,0c0.1,0.1,0.2,0.3,0.1,0.4c-1,3.1-2.9,5.7-5.5,7.7c2.4-0.4,4.8-1.1,7-2.1c0.1-0.1,0.3,0,0.4,0.1
		c0.1,0.1,0.1,0.3,0,0.4C85.7,31.9,83.2,34.5,80.2,36.7L80.2,36.7z M80.2,36.7"/>
</g>
</svg>
