<?xml version="1.0" encoding="utf-8"?>
<!-- Generator: Adobe Illustrator 19.0.0, SVG Export Plug-In . SVG Version: 6.00 Build 0)  -->
<svg version="1.1" id="Laag_1" xmlns="http://www.w3.org/2000/svg" xmlns:xlink="http://www.w3.org/1999/xlink" x="0px" y="0px"
	 viewBox="-36 218 166 166" style="enable-background:new -36 218 166 166;" xml:space="preserve">
<style type="text/css">
	.st0{fill:#030104;}
	.st1{display:none;}
	.st2{display:inline;}
	.st3{fill:none;stroke:#E74B3C;stroke-width:26;stroke-miterlimit:10;}
</style>
<g>
	<g>
		<path class="st0" d="M47,292c-7.5,0-13.5,6-13.5,13.5c0,7.5,6,13.5,13.5,13.5c7.5,0,13.5-6,13.5-13.5C60.5,298,54.5,292,47,292z
			 M83,278.5H72.2c-1.5,0-3.1-1.2-3.6-2.6l-2.8-8.4c-0.5-1.4-2.1-2.6-3.6-2.6H31.7c-1.5,0-3.1,1.2-3.6,2.6l-2.8,8.4
			c-0.5,1.4-2.1,2.6-3.6,2.6H11c-4.9,0-9,4-9,9V328c0,5,4.1,9,9,9h72c4.9,0,9-4,9-9v-40.5C92,282.5,87.9,278.5,83,278.5z M47,328
			c-12.4,0-22.5-10.1-22.5-22.5c0-12.4,10.1-22.5,22.5-22.5c12.4,0,22.5,10.1,22.5,22.5C69.5,317.9,59.4,328,47,328z M79.8,293.8
			c-1.7,0-3.2-1.4-3.2-3.1c0-1.7,1.4-3.1,3.2-3.1c1.7,0,3.2,1.4,3.2,3.1C83,292.4,81.6,293.8,79.8,293.8z"/>
	</g>
</g>
<g class="st1">
	<g id="_x33__13_" class="st2">
		<g>
			<path d="M86.4,295.4l-16.9,11.3c0-3.4-1.6-6.4-4-8.5c5.7-3.4,9.6-9.7,9.6-16.8c0-10.9-8.8-19.7-19.7-19.7s-19.7,8.8-19.7,19.7
				c0,5.5,2.3,10.5,5.9,14.1H31.4c2.7-3,4.4-6.9,4.4-11.3c0-9.3-7.6-16.9-16.9-16.9S2,274.8,2,284.1c0,5.1,2.3,9.6,5.9,12.7
				c-3.5,1.9-5.9,5.6-5.9,9.8v22.5c0,6.2,5,11.3,11.3,11.3h45c6.2,0,11.3-5,11.3-11.3l16.9,11.3c3.1,0,5.6-2.5,5.6-5.6V301
				C92,297.9,89.5,295.4,86.4,295.4z M18.9,295.4c-6.2,0-11.3-5-11.3-11.3s5-11.3,11.3-11.3s11.3,5,11.3,11.3S25.1,295.4,18.9,295.4
				z M55.4,295.4c-7.8,0-14.1-6.3-14.1-14.1c0-7.8,6.3-14.1,14.1-14.1s14.1,6.3,14.1,14.1S63.2,295.4,55.4,295.4z"/>
		</g>
	</g>
</g>
<g class="st1">
	<g class="st2">
		<path d="M5.3,278.6c-2.2,2.2-3.3,4.9-3.3,7.9v41.8c0,3.1,1.1,5.7,3.3,7.9c2.2,2.2,4.9,3.3,7.9,3.3h3.2v-64.3h-3.2
			C10.2,275.3,7.5,276.4,5.3,278.6z"/>
		<path d="M66.3,267.3c0-1.3-0.5-2.5-1.4-3.4c-0.9-0.9-2.1-1.4-3.4-1.4H32.5c-1.3,0-2.5,0.5-3.4,1.4c-0.9,0.9-1.4,2.1-1.4,3.4v8
			h-6.4v64.3h51.4v-64.3h-6.4V267.3L66.3,267.3z M59.9,275.3H34.1v-6.4h25.7V275.3z"/>
		<path d="M88.7,278.6c-2.2-2.2-4.9-3.3-7.9-3.3h-3.2v64.3h3.2c3.1,0,5.7-1.1,7.9-3.3c2.2-2.2,3.3-4.9,3.3-7.9v-41.8
			C92,283.5,90.9,280.8,88.7,278.6z"/>
	</g>
</g>
<g id="XMLID_60_">
	<circle id="XMLID_51_" class="st3" cx="47" cy="301" r="69.8"/>
	<line id="XMLID_59_" class="st3" x1="-1.5" y1="253.1" x2="96.3" y2="352.5"/>
</g>
</svg>
